solid wakebox
 facet normal -1 0 0
  outer loop
   vertex 0.80000001192092896 -0.20000000298023224 -5.9604645663569045e-09
   vertex 0.80000001192092896 -0.20000000298023224 0.40000000596046448
   vertex 0.80000001192092896 0.20000000298023224 -5.9604645663569045e-09
  endloop
 endfacet
 facet normal -1 0 0
  outer loop
   vertex 0.80000001192092896 0.20000000298023224 0.40000000596046448
   vertex 0.80000001192092896 0.20000000298023224 -5.9604645663569045e-09
   vertex 0.80000001192092896 -0.20000000298023224 0.40000000596046448
  endloop
 endfacet
 facet normal 1 0 0
  outer loop
   vertex 3.7999999523162842 -0.20000000298023224 -5.9604645663569045e-09
   vertex 3.7999999523162842 0.20000000298023224 -5.9604645663569045e-09
   vertex 3.7999999523162842 -0.20000000298023224 0.40000000596046448
  endloop
 endfacet
 facet normal 1 -0 0
  outer loop
   vertex 3.7999999523162842 0.20000000298023224 0.40000000596046448
   vertex 3.7999999523162842 -0.20000000298023224 0.40000000596046448
   vertex 3.7999999523162842 0.20000000298023224 -5.9604645663569045e-09
  endloop
 endfacet
 facet normal 0 -1 0
  outer loop
   vertex 0.80000001192092896 -0.20000000298023224 -5.9604645663569045e-09
   vertex 3.7999999523162842 -0.20000000298023224 -5.9604645663569045e-09
   vertex 0.80000001192092896 -0.20000000298023224 0.40000000596046448
  endloop
 endfacet
 facet normal 0 -1 0
  outer loop
   vertex 3.7999999523162842 -0.20000000298023224 0.40000000596046448
   vertex 0.80000001192092896 -0.20000000298023224 0.40000000596046448
   vertex 3.7999999523162842 -0.20000000298023224 -5.9604645663569045e-09
  endloop
 endfacet
 facet normal 0 1 0
  outer loop
   vertex 0.80000001192092896 0.20000000298023224 -5.9604645663569045e-09
   vertex 0.80000001192092896 0.20000000298023224 0.40000000596046448
   vertex 3.7999999523162842 0.20000000298023224 -5.9604645663569045e-09
  endloop
 endfacet
 facet normal 0 1 -0
  outer loop
   vertex 3.7999999523162842 0.20000000298023224 0.40000000596046448
   vertex 3.7999999523162842 0.20000000298023224 -5.9604645663569045e-09
   vertex 0.80000001192092896 0.20000000298023224 0.40000000596046448
  endloop
 endfacet
 facet normal 0 0 -1
  outer loop
   vertex 0.80000001192092896 -0.20000000298023224 -5.9604645663569045e-09
   vertex 0.80000001192092896 0.20000000298023224 -5.9604645663569045e-09
   vertex 3.7999999523162842 -0.20000000298023224 -5.9604645663569045e-09
  endloop
 endfacet
 facet normal 0 0 -1
  outer loop
   vertex 3.7999999523162842 0.20000000298023224 -5.9604645663569045e-09
   vertex 3.7999999523162842 -0.20000000298023224 -5.9604645663569045e-09
   vertex 0.80000001192092896 0.20000000298023224 -5.9604645663569045e-09
  endloop
 endfacet
 facet normal 0 0 1
  outer loop
   vertex 0.80000001192092896 -0.20000000298023224 0.40000000596046448
   vertex 3.7999999523162842 -0.20000000298023224 0.40000000596046448
   vertex 0.80000001192092896 0.20000000298023224 0.40000000596046448
  endloop
 endfacet
 facet normal -0 0 1
  outer loop
   vertex 3.7999999523162842 0.20000000298023224 0.40000000596046448
   vertex 0.80000001192092896 0.20000000298023224 0.40000000596046448
   vertex 3.7999999523162842 -0.20000000298023224 0.40000000596046448
  endloop
 endfacet
endsolid wakebox
